<svg id="Outline_Icons" data-name="Outline Icons" xmlns="http://www.w3.org/2000/svg" viewBox="0 0 23.52 22.4"><defs><style>.cls-1{fill:none;stroke:#fff;stroke-linecap:round;stroke-linejoin:round;stroke-width:1.12px;}</style></defs><title>components</title><polyline class="cls-1" points="17.36 3.92 17.36 9.28 11.76 12.88 6.16 9.28 6.16 3.92"/><polygon class="cls-1" points="17.36 3.92 11.76 7.28 6.16 3.92 11.76 0.56 17.36 3.92"/><line class="cls-1" x1="11.76" y1="7.28" x2="11.76" y2="12.88"/><polyline class="cls-1" points="22.96 12.88 22.96 18.24 17.36 21.84 11.76 18.24 11.76 12.88"/><polygon class="cls-1" points="22.96 12.88 17.36 16.24 11.76 12.88 17.36 9.28 22.96 12.88"/><line class="cls-1" x1="17.36" y1="16.24" x2="17.36" y2="21.84"/><polyline class="cls-1" points="11.76 12.88 11.76 18.24 6.16 21.84 0.56 18.24 0.56 12.88"/><polygon class="cls-1" points="11.76 12.88 6.16 16.24 0.56 12.88 6.16 9.28 11.76 12.88"/><line class="cls-1" x1="6.16" y1="16.24" x2="6.16" y2="21.84"/></svg>