<svg id="Layer_1" data-name="Layer 1" xmlns="http://www.w3.org/2000/svg" viewBox="0 0 141.65 67.28"><defs><style>.cls-1{fill:#fff;}</style></defs><title>WFSLogo</title><path class="cls-1" d="M686,501.77c-1.48,0-2.65,1.4-2.9,3.52H688v-0.67c0-1.67-.81-2.85-2-2.85M673,511.42a9.34,9.34,0,0,1-2.56,2.09H673v-2.09Zm3.93-43.85c-18,0-32.64,15.06-32.64,33.64a34.39,34.39,0,0,0,2.26,12.3h1.83v-1.14h2.12V496.3h-2.12v-1.17h11.49v-0.78h1.51v4.44h-1.48v-2h-5.8v6.59h4.47v-1.9l1.51,0v5.5l-1.51,0v-2h-4.47v7.37h1.87v1.14h10.53a3.22,3.22,0,0,1-1.68-3.21V502.6h-2v-0.89l4-1.09h1.23v9.13c0,1.59.5,2.29,1.65,2.29s1.79-.45,3.27-2v-7.4h-1.43v-1l3.68-1h1v11.22h2v0.92l-3,.75h8.41c-2.41-.87-3.92-3.15-3.92-6.22,0-4,2.54-6.72,6.39-6.72,3.24,0,5.39,2,5.39,5.08v1.06h-8.34c0,3.46,1.56,5.61,4.08,5.61,1,0,1.59-.22,3.74-1.51l0.64,1.23a19.18,19.18,0,0,1-3,1.48h5v-1.14h1.65V495h-1.87v-0.89l4-1.09h1.12v19.4h1.65v1.14h2.24a31.45,31.45,0,0,0,2.23-11.67c0-17-13.36-30.76-29.84-30.76a29.07,29.07,0,0,0-16.82,5.35,29.7,29.7,0,0,1,18.58-6.54c16.8,0,30.42,14,30.42,31.34a32,32,0,0,1-2.42,12.27,33,33,0,0,1-29.64,20l-1.34,0-0.44,0-0.88-.06-0.52-.05-0.79-.09-0.55-.08-0.75-.12-0.55-.1-0.73-.15-0.55-.12-0.73-.18-0.52-.14-0.79-.24-0.45-.14c-0.39-.13-0.77-0.26-1.16-0.4l-0.55-.22-0.63-.25-0.59-.26-0.57-.26-0.6-.28L660.6,530l-0.6-.32-0.51-.28-0.59-.35-0.48-.29-0.59-.37-0.44-.29-0.61-.42q-1-.75-2-1.57a32.11,32.11,0,0,0,17.78,8.43l0.66,0.08,0.46,0.05a32,32,0,0,0,3.26.17c18,0,32.64-15.06,32.64-33.65s-14.62-33.64-32.64-33.64" transform="translate(-567.94 -467.58)"/><path class="cls-1" d="M600.71,512.51c-1.7,0-2.9-2.18-2.9-5.28s1.2-5.3,2.9-5.3,2.9,2.18,2.9,5.3-1.2,5.28-2.9,5.28m0-11.95a6.67,6.67,0,1,0,6.47,6.67,6.33,6.33,0,0,0-6.47-6.67" transform="translate(-567.94 -467.58)"/><path class="cls-1" d="M617,500.57c-0.78,0-1.42.39-2.43,1.51l-0.64.7v-2.15h-1.23l-4,1.09v0.89h2v9.77H609v1.17h6.89v-1.17h-2v-7.73c0.75-1,1.2-1.34,1.73-1.34A2.69,2.69,0,0,1,617,504l1.76-2.43-0.86-.75a1.35,1.35,0,0,0-.95-0.28" transform="translate(-567.94 -467.58)"/><polygon class="cls-1" points="56.55 25.4 55.44 25.4 51.42 26.49 51.42 27.38 53.29 27.38 53.29 44.8 51.64 44.8 51.64 45.97 58.2 45.97 58.2 44.8 56.55 44.8 56.55 25.4"/><path class="cls-1" d="M636.16,510.75a3.35,3.35,0,0,1-2.29,1.23c-1.62,0-2.93-2.18-2.93-4.86,0-3,1.62-5.27,3.71-5.27,1,0,1.51.64,1.51,2.12v6.78Zm3.29,1.09V493h-1.23l-4,1.09V495h2v6a5.11,5.11,0,0,0-2-.36,6.71,6.71,0,0,0-6.73,6.95c0,3.68,2.23,6.39,5.33,6.39,1.42,0,2.12-.36,3.43-1.7v1.62h1.23l4-1.06v-0.92h-2Z" transform="translate(-567.94 -467.58)"/><polygon class="cls-1" points="23.21 27.34 23.21 28.51 25.22 28.51 20.14 41.52 14.96 28.5 16.7 28.51 16.7 27.34 10.06 27.34 10.06 28.51 11.62 28.51 13.43 33.13 10.21 41.32 5.22 28.51 6.78 28.51 6.78 27.34 0 27.34 0 28.51 1.65 28.51 8.57 46.23 10.36 46.23 14.45 35.72 18.57 46.23 20.36 46.23 27.28 28.51 28.68 28.51 28.68 27.34 23.21 27.34"/><path class="cls-1" d="M656.47,524.78h-0.58V522.9h0.58v0.77a1.93,1.93,0,0,0,1.33.51,1,1,0,0,0,1.12-.93c0-.47-0.3-0.8-1.27-1.43a5,5,0,0,1-1.42-1.07,1.76,1.76,0,0,1-.4-1.18,1.91,1.91,0,0,1,2.11-1.91,2.67,2.67,0,0,1,1.13.23V517.6h0.56v1.78h-0.56v-0.72a1.86,1.86,0,0,0-1.11-.39,0.91,0.91,0,0,0-1,.87c0,0.42.24,0.68,1.24,1.31,0.48,0.31.78,0.5,0.9,0.58a2.35,2.35,0,0,1,.64.68,2,2,0,0,1-1.79,3.1,2.79,2.79,0,0,1-1.52-.4v0.36Z" transform="translate(-567.94 -467.58)"/><path class="cls-1" d="M664.14,521.6v-0.25a0.91,0.91,0,0,0-.73-1.07,1.27,1.27,0,0,0-1.08,1.32h1.81Zm1.33,2.52a3.65,3.65,0,0,1-2.11.7,2.27,2.27,0,0,1-2.33-2.47,2.31,2.31,0,0,1,2.39-2.51,1.84,1.84,0,0,1,2,1.9v0.39h-3.11c0,1.29.58,2.1,1.52,2.1a2.47,2.47,0,0,0,1.4-.56Z" transform="translate(-567.94 -467.58)"/><path class="cls-1" d="M669,524.69h-2.57v-0.44H667V520.6h-0.73v-0.33l1.5-.41h0.46v0.81l0.24-.26a1.24,1.24,0,0,1,.91-0.56,0.49,0.49,0,0,1,.36.11l0.32,0.28-0.66.9a1,1,0,0,0-.52-0.27,0.93,0.93,0,0,0-.65.5v2.89H669v0.44Z" transform="translate(-567.94 -467.58)"/><polygon class="cls-1" points="107.58 52.83 107.12 52.83 105.44 57.24 105.03 57.24 103.25 52.83 102.97 52.83 102.97 52.39 104.99 52.39 104.99 52.83 104.54 52.83 105.59 55.42 106.6 52.83 105.97 52.83 105.97 52.39 107.58 52.39 107.58 52.83"/><path class="cls-1" d="M677.58,517.33a0.74,0.74,0,0,1,.74.74,0.74,0.74,0,0,1-1.48,0,0.75,0.75,0,0,1,.74-0.74m1.27,7.36H676.4v-0.44H677V520.6h-0.69v-0.33l1.5-.41h0.4v4.39h0.62v0.44Z" transform="translate(-567.94 -467.58)"/><path class="cls-1" d="M683.88,524.27a3.72,3.72,0,0,1-1.82.55,2.28,2.28,0,0,1-2.31-2.42,2.62,2.62,0,0,1,4.14-2.08l-0.66.66a3,3,0,0,0-1-.68,2.12,2.12,0,0,0,.24,3.93,2,2,0,0,0,1.11-.42Z" transform="translate(-567.94 -467.58)"/><path class="cls-1" d="M687.83,521.6v-0.25a0.91,0.91,0,0,0-.73-1.07A1.27,1.27,0,0,0,686,521.6h1.82Zm1.34,2.52a3.65,3.65,0,0,1-2.11.7,2.27,2.27,0,0,1-2.33-2.47,2.31,2.31,0,0,1,2.39-2.51,1.84,1.84,0,0,1,2,1.9v0.39H686c0,1.29.58,2.1,1.52,2.1a2.48,2.48,0,0,0,1.4-.56Z" transform="translate(-567.94 -467.58)"/><path class="cls-1" d="M690.79,524.78h-0.51V523.3h0.57v0.28a1.13,1.13,0,0,0,1.23.79,0.67,0.67,0,0,0,.81-0.55c0-.42-0.26-0.63-1.28-1s-1.39-.8-1.39-1.53a1.48,1.48,0,0,1,1.67-1.44,1.7,1.7,0,0,1,1.17.36l0.06-.38h0.54l-0.26,1.5h-0.53a1.13,1.13,0,0,0,.06-0.34,1,1,0,0,0-1-.69,0.64,0.64,0,0,0-.75.58c0,0.39.17,0.51,1.27,0.95s1.37,0.8,1.37,1.55a1.42,1.42,0,0,1-1.66,1.45,1.91,1.91,0,0,1-1.35-.42v0.38Z" transform="translate(-567.94 -467.58)"/><path class="cls-1" d="M706.26,522.45h0.31a0.53,0.53,0,0,0,.66-0.42c0-.26-0.19-0.43-0.61-0.43a1.5,1.5,0,0,0-.36,0v0.81Zm0,1.59h-0.66v-2.83a7.22,7.22,0,0,1,1.09-.09,1.53,1.53,0,0,1,1,.23,0.72,0.72,0,0,1,.29.6,0.73,0.73,0,0,1-.58.67v0a0.81,0.81,0,0,1,.5.69,2.63,2.63,0,0,0,.21.69h-0.69a2.25,2.25,0,0,1-.22-0.69,0.5,0.5,0,0,0-.59-0.43h-0.31V524Zm-1.75-1.47a2.21,2.21,0,0,0,2.21,2.26,2.17,2.17,0,0,0,2.16-2.25,2.19,2.19,0,1,0-4.37,0m5.1,0a2.91,2.91,0,1,1-2.88-2.83,2.85,2.85,0,0,1,2.88,2.83" transform="translate(-567.94 -467.58)"/></svg>